<?xml version="1.0" encoding="utf-8"?>
<!-- Generator: Adobe Illustrator 25.2.3, SVG Export Plug-In . SVG Version: 6.00 Build 0)  -->
<svg version="1.1" id="Capa_1" xmlns="http://www.w3.org/2000/svg" xmlns:xlink="http://www.w3.org/1999/xlink" x="0px" y="0px"
	 width="100px" height="76px" viewBox="0 0 100 76" style="enable-background:new 0 0 100 76;" xml:space="preserve">
<style type="text/css">
	.st0{fill:#00BCD4;}
</style>
<path class="st0" d="M16.5,49.2c2.3,9.4,5.3,13.5,15.1,17.8c9.8,4.3,14.5,9,18.4,9s8.2-4.1,18.1-8.4c9.8-4.3,7.2-5.6,9.5-15L50,66
	L16.5,49.2z M97.6,24.7L55.9,1.4c-3.3-1.8-8.6-1.8-11.9,0L2.4,24.7c-3.3,1.8-3.3,4.8,0,6.6l41.6,23.3c3.3,1.8,8.6,1.8,11.9,0
	l26.9-15.1l-29.2-6.8c-1.1,0.3-2.4,0.4-3.7,0.4c-5.3,0-9.5-2.5-9.5-5.7c0-3.1,4.3-5.7,9.5-5.7c4.1,0,7.6,1.5,8.9,3.7l30.9,10.1
	l7.7-4.3C100.8,29.5,100.8,26.5,97.6,24.7z M84.8,68.9c-0.3,1.9,6.4,5.1,7.1-0.5c2.9-25.4-2.1-32.7-2.1-32.7l-7,3.9
	C82.8,39.6,88.8,45.2,84.8,68.9z"/>
<path class="st0" d="M16.5,49.2c2.3,9.4,5.3,13.5,15.1,17.8c9.8,4.3,14.5,9,18.4,9s8.2-4.1,18.1-8.4c9.8-4.3,7.2-5.6,9.5-15L50,66
	L16.5,49.2z M97.6,24.7L55.9,1.4c-3.3-1.8-8.6-1.8-11.9,0L2.4,24.7c-3.3,1.8-3.3,4.8,0,6.6l41.6,23.3c3.3,1.8,8.6,1.8,11.9,0
	l26.9-15.1l-29.2-6.8c-1.1,0.3-2.4,0.4-3.7,0.4c-5.3,0-9.5-2.5-9.5-5.7c0-3.1,4.3-5.7,9.5-5.7c4.1,0,7.6,1.5,8.9,3.7l30.9,10.1
	l7.7-4.3C100.8,29.5,100.8,26.5,97.6,24.7z M84.8,68.9c-0.3,1.9,6.4,5.1,7.1-0.5c2.9-25.4-2.1-32.7-2.1-32.7l-7,3.9
	C82.8,39.6,88.8,45.2,84.8,68.9z"/>
</svg>
