<?xml version="1.0" encoding="utf-8"?>
<!-- Generator: Adobe Illustrator 25.2.3, SVG Export Plug-In . SVG Version: 6.00 Build 0)  -->
<svg version="1.1" id="Capa_1" xmlns="http://www.w3.org/2000/svg" xmlns:xlink="http://www.w3.org/1999/xlink" x="0px" y="0px"
	 width="16px" height="12.1px" viewBox="0 0 16 12.1" style="enable-background:new 0 0 16 12.1;" xml:space="preserve">
<style type="text/css">
	.st0{fill:#FFFFFF;}
</style>
<path class="st0" d="M2.7,7.8C3,9.3,3.5,10,5.1,10.7c1.6,0.7,2.3,1.4,2.9,1.4s1.3-0.7,2.9-1.3c1.5-0.7,1.2-0.9,1.5-2.4L8,10.5
	L2.7,7.8z M15.6,3.9L9,0.2C8.4-0.1,7.6-0.1,7,0.2L0.4,3.9c-0.5,0.3-0.5,0.8,0,1L7,8.7C7.6,9,8.4,9,9,8.7l4.3-2.4L8.6,5.2
	C8.4,5.2,8.2,5.2,8,5.2c-0.8,0-1.5-0.4-1.5-0.9c0-0.5,0.7-0.9,1.5-0.9c0.7,0,1.2,0.2,1.4,0.6l4.9,1.6l1.2-0.7
	C16.1,4.7,16.1,4.2,15.6,3.9z M13.6,10.9c-0.1,0.3,1,0.8,1.2-0.1c0.4-4.1-0.3-5.2-0.3-5.2l-1.1,0.6C13.2,6.3,14.2,7.2,13.6,10.9z"/>
<path class="st0" d="M2.7,7.8C3,9.3,3.5,10,5.1,10.7c1.6,0.7,2.3,1.4,2.9,1.4s1.3-0.7,2.9-1.3c1.5-0.7,1.2-0.9,1.5-2.4L8,10.5
	L2.7,7.8z M15.6,3.9L9,0.2C8.4-0.1,7.6-0.1,7,0.2L0.4,3.9c-0.5,0.3-0.5,0.8,0,1L7,8.7C7.6,9,8.4,9,9,8.7l4.3-2.4L8.6,5.2
	C8.4,5.2,8.2,5.2,8,5.2c-0.8,0-1.5-0.4-1.5-0.9c0-0.5,0.7-0.9,1.5-0.9c0.7,0,1.2,0.2,1.4,0.6l4.9,1.6l1.2-0.7
	C16.1,4.7,16.1,4.2,15.6,3.9z M13.6,10.9c-0.1,0.3,1,0.8,1.2-0.1c0.4-4.1-0.3-5.2-0.3-5.2l-1.1,0.6C13.2,6.3,14.2,7.2,13.6,10.9z"/>
</svg>
